<mxfile host="app.diagrams.net" modified="2023-02-16T09:58:14.968Z" agent="5.0 (Windows NT 10.0; Win64; x64) AppleWebKit/537.36 (KHTML, like Gecko) Chrome/110.0.0.0 Safari/537.36" etag="lTadnrNgDcUgAroPf5xK" version="20.8.20" type="github">
  <diagram id="C5RBs43oDa-KdzZeNtuy" name="Page-1">
    <mxGraphModel dx="1434" dy="764" grid="1" gridSize="10" guides="1" tooltips="1" connect="1" arrows="1" fold="1" page="1" pageScale="1" pageWidth="827" pageHeight="1169" math="0" shadow="0">
      <root>
        <mxCell id="WIyWlLk6GJQsqaUBKTNV-0" />
        <mxCell id="WIyWlLk6GJQsqaUBKTNV-1" parent="WIyWlLk6GJQsqaUBKTNV-0" />
        <mxCell id="pcVWgO0aUQYTBCzfiNv5-4" style="edgeStyle=orthogonalEdgeStyle;rounded=0;orthogonalLoop=1;jettySize=auto;html=1;entryX=0.5;entryY=0;entryDx=0;entryDy=0;" edge="1" parent="WIyWlLk6GJQsqaUBKTNV-1" source="pcVWgO0aUQYTBCzfiNv5-0" target="pcVWgO0aUQYTBCzfiNv5-2">
          <mxGeometry relative="1" as="geometry" />
        </mxCell>
        <mxCell id="pcVWgO0aUQYTBCzfiNv5-0" value="Start" style="ellipse;whiteSpace=wrap;html=1;" vertex="1" parent="WIyWlLk6GJQsqaUBKTNV-1">
          <mxGeometry x="264" y="10" width="120" height="80" as="geometry" />
        </mxCell>
        <mxCell id="pcVWgO0aUQYTBCzfiNv5-1" value="Koniec" style="ellipse;whiteSpace=wrap;html=1;" vertex="1" parent="WIyWlLk6GJQsqaUBKTNV-1">
          <mxGeometry x="40" y="545" width="120" height="80" as="geometry" />
        </mxCell>
        <mxCell id="pcVWgO0aUQYTBCzfiNv5-5" style="edgeStyle=orthogonalEdgeStyle;rounded=0;orthogonalLoop=1;jettySize=auto;html=1;entryX=0.5;entryY=0;entryDx=0;entryDy=0;" edge="1" parent="WIyWlLk6GJQsqaUBKTNV-1" source="pcVWgO0aUQYTBCzfiNv5-2" target="pcVWgO0aUQYTBCzfiNv5-3">
          <mxGeometry relative="1" as="geometry" />
        </mxCell>
        <mxCell id="pcVWgO0aUQYTBCzfiNv5-2" value="podaj tablice: a" style="rounded=0;whiteSpace=wrap;html=1;" vertex="1" parent="WIyWlLk6GJQsqaUBKTNV-1">
          <mxGeometry x="264" y="110" width="120" height="60" as="geometry" />
        </mxCell>
        <mxCell id="pcVWgO0aUQYTBCzfiNv5-7" style="edgeStyle=orthogonalEdgeStyle;rounded=0;orthogonalLoop=1;jettySize=auto;html=1;entryX=0.5;entryY=0;entryDx=0;entryDy=0;" edge="1" parent="WIyWlLk6GJQsqaUBKTNV-1" source="pcVWgO0aUQYTBCzfiNv5-3" target="pcVWgO0aUQYTBCzfiNv5-6">
          <mxGeometry relative="1" as="geometry" />
        </mxCell>
        <mxCell id="pcVWgO0aUQYTBCzfiNv5-3" value="i = 0;&lt;br&gt;tablica: tab" style="rounded=0;whiteSpace=wrap;html=1;" vertex="1" parent="WIyWlLk6GJQsqaUBKTNV-1">
          <mxGeometry x="264" y="190" width="120" height="60" as="geometry" />
        </mxCell>
        <mxCell id="pcVWgO0aUQYTBCzfiNv5-11" style="edgeStyle=orthogonalEdgeStyle;rounded=0;orthogonalLoop=1;jettySize=auto;html=1;" edge="1" parent="WIyWlLk6GJQsqaUBKTNV-1" source="pcVWgO0aUQYTBCzfiNv5-6" target="pcVWgO0aUQYTBCzfiNv5-10">
          <mxGeometry relative="1" as="geometry" />
        </mxCell>
        <mxCell id="pcVWgO0aUQYTBCzfiNv5-15" style="edgeStyle=orthogonalEdgeStyle;rounded=0;orthogonalLoop=1;jettySize=auto;html=1;" edge="1" parent="WIyWlLk6GJQsqaUBKTNV-1" source="pcVWgO0aUQYTBCzfiNv5-6" target="pcVWgO0aUQYTBCzfiNv5-14">
          <mxGeometry relative="1" as="geometry" />
        </mxCell>
        <mxCell id="pcVWgO0aUQYTBCzfiNv5-6" value="i &amp;lt; &lt;br&gt;długość tablicy a" style="rhombus;whiteSpace=wrap;html=1;" vertex="1" parent="WIyWlLk6GJQsqaUBKTNV-1">
          <mxGeometry x="262" y="280" width="124" height="120" as="geometry" />
        </mxCell>
        <mxCell id="pcVWgO0aUQYTBCzfiNv5-8" value="Nie" style="text;html=1;align=center;verticalAlign=middle;resizable=0;points=[];autosize=1;strokeColor=none;fillColor=none;" vertex="1" parent="WIyWlLk6GJQsqaUBKTNV-1">
          <mxGeometry x="224" y="310" width="40" height="30" as="geometry" />
        </mxCell>
        <mxCell id="pcVWgO0aUQYTBCzfiNv5-9" value="Tak" style="text;html=1;align=center;verticalAlign=middle;resizable=0;points=[];autosize=1;strokeColor=none;fillColor=none;" vertex="1" parent="WIyWlLk6GJQsqaUBKTNV-1">
          <mxGeometry x="386" y="310" width="40" height="30" as="geometry" />
        </mxCell>
        <mxCell id="pcVWgO0aUQYTBCzfiNv5-12" style="edgeStyle=orthogonalEdgeStyle;rounded=0;orthogonalLoop=1;jettySize=auto;html=1;entryX=0.5;entryY=0;entryDx=0;entryDy=0;" edge="1" parent="WIyWlLk6GJQsqaUBKTNV-1" source="pcVWgO0aUQYTBCzfiNv5-10" target="pcVWgO0aUQYTBCzfiNv5-1">
          <mxGeometry relative="1" as="geometry" />
        </mxCell>
        <mxCell id="pcVWgO0aUQYTBCzfiNv5-10" value="pokaz tablice tab" style="rounded=0;whiteSpace=wrap;html=1;" vertex="1" parent="WIyWlLk6GJQsqaUBKTNV-1">
          <mxGeometry x="40" y="440" width="120" height="60" as="geometry" />
        </mxCell>
        <mxCell id="pcVWgO0aUQYTBCzfiNv5-17" style="edgeStyle=orthogonalEdgeStyle;rounded=0;orthogonalLoop=1;jettySize=auto;html=1;entryX=0;entryY=0.5;entryDx=0;entryDy=0;" edge="1" parent="WIyWlLk6GJQsqaUBKTNV-1" source="pcVWgO0aUQYTBCzfiNv5-14" target="pcVWgO0aUQYTBCzfiNv5-16">
          <mxGeometry relative="1" as="geometry" />
        </mxCell>
        <mxCell id="pcVWgO0aUQYTBCzfiNv5-24" style="edgeStyle=orthogonalEdgeStyle;rounded=0;orthogonalLoop=1;jettySize=auto;html=1;" edge="1" parent="WIyWlLk6GJQsqaUBKTNV-1" source="pcVWgO0aUQYTBCzfiNv5-14" target="pcVWgO0aUQYTBCzfiNv5-19">
          <mxGeometry relative="1" as="geometry" />
        </mxCell>
        <mxCell id="pcVWgO0aUQYTBCzfiNv5-14" value="czy tab[a[i]] nie istnieje" style="rhombus;whiteSpace=wrap;html=1;" vertex="1" parent="WIyWlLk6GJQsqaUBKTNV-1">
          <mxGeometry x="470" y="280" width="120" height="120" as="geometry" />
        </mxCell>
        <mxCell id="pcVWgO0aUQYTBCzfiNv5-23" style="edgeStyle=orthogonalEdgeStyle;rounded=0;orthogonalLoop=1;jettySize=auto;html=1;entryX=1;entryY=0.5;entryDx=0;entryDy=0;" edge="1" parent="WIyWlLk6GJQsqaUBKTNV-1" source="pcVWgO0aUQYTBCzfiNv5-16" target="pcVWgO0aUQYTBCzfiNv5-19">
          <mxGeometry relative="1" as="geometry">
            <Array as="points">
              <mxPoint x="720" y="510" />
            </Array>
          </mxGeometry>
        </mxCell>
        <mxCell id="pcVWgO0aUQYTBCzfiNv5-16" value="dodaje klucz o wartosci a[i] do tab i ustawia jej wartosc na 0" style="whiteSpace=wrap;html=1;" vertex="1" parent="WIyWlLk6GJQsqaUBKTNV-1">
          <mxGeometry x="650" y="300" width="150" height="80" as="geometry" />
        </mxCell>
        <mxCell id="pcVWgO0aUQYTBCzfiNv5-18" value="Tak" style="text;html=1;align=center;verticalAlign=middle;resizable=0;points=[];autosize=1;strokeColor=none;fillColor=none;" vertex="1" parent="WIyWlLk6GJQsqaUBKTNV-1">
          <mxGeometry x="590" y="310" width="40" height="30" as="geometry" />
        </mxCell>
        <mxCell id="pcVWgO0aUQYTBCzfiNv5-26" style="edgeStyle=orthogonalEdgeStyle;rounded=0;orthogonalLoop=1;jettySize=auto;html=1;entryX=0.5;entryY=1;entryDx=0;entryDy=0;" edge="1" parent="WIyWlLk6GJQsqaUBKTNV-1" source="pcVWgO0aUQYTBCzfiNv5-19" target="pcVWgO0aUQYTBCzfiNv5-6">
          <mxGeometry relative="1" as="geometry" />
        </mxCell>
        <mxCell id="pcVWgO0aUQYTBCzfiNv5-19" value="tab[a[i]]++&lt;br&gt;i++" style="whiteSpace=wrap;html=1;" vertex="1" parent="WIyWlLk6GJQsqaUBKTNV-1">
          <mxGeometry x="470" y="480" width="120" height="60" as="geometry" />
        </mxCell>
        <mxCell id="pcVWgO0aUQYTBCzfiNv5-25" value="Nie" style="text;html=1;align=center;verticalAlign=middle;resizable=0;points=[];autosize=1;strokeColor=none;fillColor=none;" vertex="1" parent="WIyWlLk6GJQsqaUBKTNV-1">
          <mxGeometry x="530" y="400" width="40" height="30" as="geometry" />
        </mxCell>
      </root>
    </mxGraphModel>
  </diagram>
</mxfile>
